<mxfile host="Electron" agent="Mozilla/5.0 (X11; Linux x86_64) AppleWebKit/537.36 (KHTML, like Gecko) draw.io/24.7.8 Chrome/128.0.6613.36 Electron/32.0.1 Safari/537.36" version="24.7.8">
  <diagram name="Página-1" id="Qp_oEuiofG8l5qrksmMk">
    <mxGraphModel dx="1843" dy="547" grid="1" gridSize="10" guides="1" tooltips="1" connect="1" arrows="1" fold="1" page="1" pageScale="1" pageWidth="827" pageHeight="1169" math="0" shadow="0">
      <root>
        <mxCell id="0" />
        <mxCell id="1" parent="0" />
        <mxCell id="IBLEdeSOyoeLH06y73dM-1" value="&lt;u&gt;:ValidarCampos&lt;/u&gt;" style="html=1;whiteSpace=wrap;" vertex="1" parent="1">
          <mxGeometry x="990" y="10" width="110" height="50" as="geometry" />
        </mxCell>
        <mxCell id="IBLEdeSOyoeLH06y73dM-2" value="" style="html=1;points=[[0,0,0,0,5],[0,1,0,0,-5],[1,0,0,0,5],[1,1,0,0,-5]];perimeter=orthogonalPerimeter;outlineConnect=0;targetShapes=umlLifeline;portConstraint=eastwest;newEdgeStyle={&quot;curved&quot;:0,&quot;rounded&quot;:0};" vertex="1" parent="1">
          <mxGeometry x="1040" y="110" width="10" height="80" as="geometry" />
        </mxCell>
        <mxCell id="IBLEdeSOyoeLH06y73dM-3" value="iniciarSesion(CredencialesUsuario)" style="html=1;verticalAlign=bottom;startArrow=oval;endArrow=block;startSize=8;curved=0;rounded=0;entryX=0;entryY=0;entryDx=0;entryDy=5;" edge="1" parent="1" target="IBLEdeSOyoeLH06y73dM-2">
          <mxGeometry relative="1" as="geometry">
            <mxPoint x="820" y="115" as="sourcePoint" />
          </mxGeometry>
        </mxCell>
        <mxCell id="IBLEdeSOyoeLH06y73dM-5" value="compararContraseñas(CredencialesUsuario)" style="html=1;verticalAlign=bottom;startArrow=oval;endArrow=block;startSize=8;curved=0;rounded=0;entryX=0;entryY=0;entryDx=0;entryDy=5;" edge="1" parent="1" target="IBLEdeSOyoeLH06y73dM-4">
          <mxGeometry relative="1" as="geometry">
            <mxPoint x="1050" y="155" as="sourcePoint" />
          </mxGeometry>
        </mxCell>
        <mxCell id="IBLEdeSOyoeLH06y73dM-6" value="&lt;u&gt;:Encriptador&lt;/u&gt;" style="html=1;whiteSpace=wrap;" vertex="1" parent="1">
          <mxGeometry x="1250" y="50" width="110" height="50" as="geometry" />
        </mxCell>
        <mxCell id="IBLEdeSOyoeLH06y73dM-7" value="" style="html=1;points=[[0,0,0,0,5],[0,1,0,0,-5],[1,0,0,0,5],[1,1,0,0,-5]];perimeter=orthogonalPerimeter;outlineConnect=0;targetShapes=umlLifeline;portConstraint=eastwest;newEdgeStyle={&quot;curved&quot;:0,&quot;rounded&quot;:0};" vertex="1" parent="1">
          <mxGeometry x="1510" y="180" width="10" height="80" as="geometry" />
        </mxCell>
        <mxCell id="IBLEdeSOyoeLH06y73dM-8" value="autenticarUsuario(CredencialesUsuario)" style="html=1;verticalAlign=bottom;startArrow=oval;endArrow=block;startSize=8;curved=0;rounded=0;entryX=0;entryY=0;entryDx=0;entryDy=5;" edge="1" parent="1" target="IBLEdeSOyoeLH06y73dM-7" source="IBLEdeSOyoeLH06y73dM-4">
          <mxGeometry relative="1" as="geometry">
            <mxPoint x="1300" y="190" as="sourcePoint" />
            <mxPoint as="offset" />
          </mxGeometry>
        </mxCell>
        <mxCell id="IBLEdeSOyoeLH06y73dM-9" value="&lt;u&gt;:ServicioAutenticador&lt;/u&gt;" style="html=1;whiteSpace=wrap;" vertex="1" parent="1">
          <mxGeometry x="1440" y="80" width="120" height="50" as="geometry" />
        </mxCell>
        <mxCell id="IBLEdeSOyoeLH06y73dM-10" value="" style="html=1;points=[[0,0,0,0,5],[0,1,0,0,-5],[1,0,0,0,5],[1,1,0,0,-5]];perimeter=orthogonalPerimeter;outlineConnect=0;targetShapes=umlLifeline;portConstraint=eastwest;newEdgeStyle={&quot;curved&quot;:0,&quot;rounded&quot;:0};" vertex="1" parent="1">
          <mxGeometry x="1730" y="210" width="10" height="80" as="geometry" />
        </mxCell>
        <mxCell id="IBLEdeSOyoeLH06y73dM-11" value="extraerPermiso(CredencialesUsuario)" style="html=1;verticalAlign=bottom;startArrow=oval;endArrow=block;startSize=8;curved=0;rounded=0;entryX=0;entryY=0;entryDx=0;entryDy=5;" edge="1" parent="1" target="IBLEdeSOyoeLH06y73dM-10" source="IBLEdeSOyoeLH06y73dM-7">
          <mxGeometry relative="1" as="geometry">
            <mxPoint x="1490" y="220" as="sourcePoint" />
          </mxGeometry>
        </mxCell>
        <mxCell id="IBLEdeSOyoeLH06y73dM-12" value="&lt;u&gt;:AutenticadorUsuario&lt;/u&gt;" style="html=1;whiteSpace=wrap;" vertex="1" parent="1">
          <mxGeometry x="1654" y="110" width="136" height="50" as="geometry" />
        </mxCell>
        <mxCell id="IBLEdeSOyoeLH06y73dM-13" value="" style="endArrow=none;dashed=1;html=1;rounded=0;entryX=0.548;entryY=1.02;entryDx=0;entryDy=0;entryPerimeter=0;" edge="1" parent="1" source="IBLEdeSOyoeLH06y73dM-2" target="IBLEdeSOyoeLH06y73dM-1">
          <mxGeometry width="50" height="50" relative="1" as="geometry">
            <mxPoint x="1200" y="190" as="sourcePoint" />
            <mxPoint x="1250" y="140" as="targetPoint" />
          </mxGeometry>
        </mxCell>
        <mxCell id="IBLEdeSOyoeLH06y73dM-14" value="" style="endArrow=none;dashed=1;html=1;rounded=0;entryX=0.415;entryY=0.98;entryDx=0;entryDy=0;entryPerimeter=0;" edge="1" parent="1" source="IBLEdeSOyoeLH06y73dM-4" target="IBLEdeSOyoeLH06y73dM-6">
          <mxGeometry width="50" height="50" relative="1" as="geometry">
            <mxPoint x="1050" y="120" as="sourcePoint" />
            <mxPoint x="1050" y="31" as="targetPoint" />
          </mxGeometry>
        </mxCell>
        <mxCell id="IBLEdeSOyoeLH06y73dM-15" value="" style="endArrow=none;dashed=1;html=1;rounded=0;entryX=0.585;entryY=0.98;entryDx=0;entryDy=0;entryPerimeter=0;exitX=0;exitY=0;exitDx=0;exitDy=5;exitPerimeter=0;" edge="1" parent="1" target="IBLEdeSOyoeLH06y73dM-9" source="IBLEdeSOyoeLH06y73dM-7">
          <mxGeometry width="50" height="50" relative="1" as="geometry">
            <mxPoint x="1490" y="180" as="sourcePoint" />
            <mxPoint x="1484.67" y="105" as="targetPoint" />
          </mxGeometry>
        </mxCell>
        <mxCell id="IBLEdeSOyoeLH06y73dM-16" value="" style="endArrow=none;dashed=1;html=1;rounded=0;entryX=0.587;entryY=1.011;entryDx=0;entryDy=0;entryPerimeter=0;" edge="1" parent="1" source="IBLEdeSOyoeLH06y73dM-10" target="IBLEdeSOyoeLH06y73dM-12">
          <mxGeometry width="50" height="50" relative="1" as="geometry">
            <mxPoint x="1140" y="125" as="sourcePoint" />
            <mxPoint x="1140" y="36" as="targetPoint" />
          </mxGeometry>
        </mxCell>
        <mxCell id="IBLEdeSOyoeLH06y73dM-18" value="" style="html=1;verticalAlign=bottom;startArrow=oval;endArrow=block;startSize=8;curved=0;rounded=0;entryX=0;entryY=0;entryDx=0;entryDy=5;" edge="1" parent="1" target="IBLEdeSOyoeLH06y73dM-4">
          <mxGeometry relative="1" as="geometry">
            <mxPoint x="1300" y="190" as="sourcePoint" />
            <mxPoint as="offset" />
            <mxPoint x="1480" y="190" as="targetPoint" />
          </mxGeometry>
        </mxCell>
        <mxCell id="IBLEdeSOyoeLH06y73dM-4" value="" style="html=1;points=[[0,0,0,0,5],[0,1,0,0,-5],[1,0,0,0,5],[1,1,0,0,-5]];perimeter=orthogonalPerimeter;outlineConnect=0;targetShapes=umlLifeline;portConstraint=eastwest;newEdgeStyle={&quot;curved&quot;:0,&quot;rounded&quot;:0};" vertex="1" parent="1">
          <mxGeometry x="1290" y="150" width="10" height="80" as="geometry" />
        </mxCell>
        <mxCell id="IBLEdeSOyoeLH06y73dM-19" value="" style="html=1;points=[[0,0,0,0,5],[0,1,0,0,-5],[1,0,0,0,5],[1,1,0,0,-5]];perimeter=orthogonalPerimeter;outlineConnect=0;targetShapes=umlLifeline;portConstraint=eastwest;newEdgeStyle={&quot;curved&quot;:0,&quot;rounded&quot;:0};" vertex="1" parent="1">
          <mxGeometry x="1890" y="240" width="10" height="80" as="geometry" />
        </mxCell>
        <mxCell id="IBLEdeSOyoeLH06y73dM-20" value="iniciarSesion(Usuario)" style="html=1;verticalAlign=bottom;startArrow=oval;endArrow=block;startSize=8;curved=0;rounded=0;entryX=0;entryY=0;entryDx=0;entryDy=5;" edge="1" target="IBLEdeSOyoeLH06y73dM-19" parent="1">
          <mxGeometry relative="1" as="geometry">
            <mxPoint x="1740" y="245" as="sourcePoint" />
          </mxGeometry>
        </mxCell>
        <mxCell id="IBLEdeSOyoeLH06y73dM-21" value="&lt;u&gt;:IniciarSesion&lt;/u&gt;" style="html=1;whiteSpace=wrap;" vertex="1" parent="1">
          <mxGeometry x="1827" y="150" width="136" height="50" as="geometry" />
        </mxCell>
        <mxCell id="IBLEdeSOyoeLH06y73dM-22" value="" style="endArrow=none;dashed=1;html=1;rounded=0;entryX=0.5;entryY=1;entryDx=0;entryDy=0;" edge="1" parent="1" source="IBLEdeSOyoeLH06y73dM-19" target="IBLEdeSOyoeLH06y73dM-21">
          <mxGeometry width="50" height="50" relative="1" as="geometry">
            <mxPoint x="1744" y="220" as="sourcePoint" />
            <mxPoint x="1744" y="171" as="targetPoint" />
          </mxGeometry>
        </mxCell>
      </root>
    </mxGraphModel>
  </diagram>
</mxfile>
